<mxfile host="app.diagrams.net" agent="Mozilla/5.0 (X11; Ubuntu; Linux x86_64; rv:135.0) Gecko/20100101 Firefox/135.0" version="26.0.16">
  <diagram id="C5RBs43oDa-KdzZeNtuy" name="Page-1">
    <mxGraphModel dx="662" dy="961" grid="1" gridSize="10" guides="1" tooltips="1" connect="1" arrows="1" fold="1" page="1" pageScale="1" pageWidth="827" pageHeight="1169" math="0" shadow="0">
      <root>
        <mxCell id="WIyWlLk6GJQsqaUBKTNV-0" />
        <mxCell id="WIyWlLk6GJQsqaUBKTNV-1" parent="WIyWlLk6GJQsqaUBKTNV-0" />
        <mxCell id="PELLuqCs5naIXxOrmulJ-6" style="edgeStyle=orthogonalEdgeStyle;rounded=0;orthogonalLoop=1;jettySize=auto;html=1;entryX=0.5;entryY=0;entryDx=0;entryDy=0;" parent="WIyWlLk6GJQsqaUBKTNV-1" source="WIyWlLk6GJQsqaUBKTNV-3" edge="1">
          <mxGeometry relative="1" as="geometry">
            <mxPoint x="388.25" y="130" as="targetPoint" />
          </mxGeometry>
        </mxCell>
        <mxCell id="WIyWlLk6GJQsqaUBKTNV-3" value="&lt;font style=&quot;font-size: 12px;&quot;&gt;Create copy of solution&lt;/font&gt;" style="rounded=1;whiteSpace=wrap;html=1;fontSize=12;glass=0;strokeWidth=1;shadow=0;fillColor=none;" parent="WIyWlLk6GJQsqaUBKTNV-1" vertex="1">
          <mxGeometry x="319" y="70" width="138.5" height="30" as="geometry" />
        </mxCell>
        <mxCell id="PELLuqCs5naIXxOrmulJ-9" style="edgeStyle=orthogonalEdgeStyle;rounded=0;orthogonalLoop=1;jettySize=auto;html=1;entryX=0.5;entryY=0;entryDx=0;entryDy=0;" parent="WIyWlLk6GJQsqaUBKTNV-1" source="w9apprOF4AOWEV_3NA-S-5" target="w9apprOF4AOWEV_3NA-S-9" edge="1">
          <mxGeometry relative="1" as="geometry" />
        </mxCell>
        <mxCell id="w9apprOF4AOWEV_3NA-S-5" value="Loop over customers to remove" style="rounded=1;whiteSpace=wrap;html=1;fillColor=none;" parent="WIyWlLk6GJQsqaUBKTNV-1" vertex="1">
          <mxGeometry x="272.35" y="513" width="226.75" height="37" as="geometry" />
        </mxCell>
        <mxCell id="ovq_Euehlx0OOnayFl8J-1" value="" style="edgeStyle=orthogonalEdgeStyle;rounded=0;orthogonalLoop=1;jettySize=auto;html=1;" edge="1" parent="WIyWlLk6GJQsqaUBKTNV-1" source="w9apprOF4AOWEV_3NA-S-9" target="ovq_Euehlx0OOnayFl8J-0">
          <mxGeometry relative="1" as="geometry" />
        </mxCell>
        <mxCell id="w9apprOF4AOWEV_3NA-S-9" value="Find route of customer i" style="rounded=1;whiteSpace=wrap;html=1;fillColor=none;" parent="WIyWlLk6GJQsqaUBKTNV-1" vertex="1">
          <mxGeometry x="297.345" y="582" width="176.75" height="32" as="geometry" />
        </mxCell>
        <mxCell id="PELLuqCs5naIXxOrmulJ-8" style="edgeStyle=orthogonalEdgeStyle;rounded=0;orthogonalLoop=1;jettySize=auto;html=1;entryX=0.5;entryY=0;entryDx=0;entryDy=0;" parent="WIyWlLk6GJQsqaUBKTNV-1" source="w9apprOF4AOWEV_3NA-S-17" target="w9apprOF4AOWEV_3NA-S-5" edge="1">
          <mxGeometry relative="1" as="geometry" />
        </mxCell>
        <mxCell id="w9apprOF4AOWEV_3NA-S-17" value="Randomly sample customers_to_remove customers without replacement" style="rounded=1;whiteSpace=wrap;html=1;fillColor=none;" parent="WIyWlLk6GJQsqaUBKTNV-1" vertex="1">
          <mxGeometry x="274.40500000000003" y="450" width="222.63" height="37" as="geometry" />
        </mxCell>
        <mxCell id="UUrrPUcGa-4PxcQuql53-15" style="edgeStyle=orthogonalEdgeStyle;rounded=0;orthogonalLoop=1;jettySize=auto;html=1;exitX=1;exitY=0.5;exitDx=0;exitDy=0;entryX=1;entryY=0.5;entryDx=0;entryDy=0;" parent="WIyWlLk6GJQsqaUBKTNV-1" source="UUrrPUcGa-4PxcQuql53-6" target="w9apprOF4AOWEV_3NA-S-5" edge="1">
          <mxGeometry relative="1" as="geometry">
            <Array as="points">
              <mxPoint x="557" y="750" />
              <mxPoint x="557" y="532" />
            </Array>
          </mxGeometry>
        </mxCell>
        <mxCell id="ovq_Euehlx0OOnayFl8J-8" value="" style="edgeStyle=orthogonalEdgeStyle;rounded=0;orthogonalLoop=1;jettySize=auto;html=1;" edge="1" parent="WIyWlLk6GJQsqaUBKTNV-1" source="UUrrPUcGa-4PxcQuql53-6" target="UUrrPUcGa-4PxcQuql53-12">
          <mxGeometry relative="1" as="geometry" />
        </mxCell>
        <mxCell id="UUrrPUcGa-4PxcQuql53-6" value="Finished &lt;br&gt;loop ?" style="rhombus;whiteSpace=wrap;html=1;fillColor=none;" parent="WIyWlLk6GJQsqaUBKTNV-1" vertex="1">
          <mxGeometry x="345.73" y="710" width="80" height="80" as="geometry" />
        </mxCell>
        <mxCell id="UUrrPUcGa-4PxcQuql53-11" value="&lt;div&gt;No&lt;/div&gt;" style="text;html=1;align=center;verticalAlign=middle;resizable=0;points=[];autosize=1;strokeColor=none;fillColor=none;" parent="WIyWlLk6GJQsqaUBKTNV-1" vertex="1">
          <mxGeometry x="423.23" y="720" width="40" height="30" as="geometry" />
        </mxCell>
        <mxCell id="UUrrPUcGa-4PxcQuql53-12" value="Remove empty routes and return" style="rounded=1;whiteSpace=wrap;html=1;fillColor=none;" parent="WIyWlLk6GJQsqaUBKTNV-1" vertex="1">
          <mxGeometry x="309.85" y="810" width="151.75" height="40" as="geometry" />
        </mxCell>
        <mxCell id="UUrrPUcGa-4PxcQuql53-16" value="" style="edgeStyle=orthogonalEdgeStyle;rounded=0;orthogonalLoop=1;jettySize=auto;html=1;" parent="WIyWlLk6GJQsqaUBKTNV-1" source="UUrrPUcGa-4PxcQuql53-17" target="UUrrPUcGa-4PxcQuql53-18" edge="1">
          <mxGeometry relative="1" as="geometry" />
        </mxCell>
        <mxCell id="UUrrPUcGa-4PxcQuql53-17" value="&lt;div&gt;Compute number of customers to remove&lt;/div&gt;&lt;div&gt;and number of served customers&lt;/div&gt;" style="rounded=1;whiteSpace=wrap;html=1;fillColor=none;" parent="WIyWlLk6GJQsqaUBKTNV-1" vertex="1">
          <mxGeometry x="256.75" y="130" width="263" height="40" as="geometry" />
        </mxCell>
        <mxCell id="UUrrPUcGa-4PxcQuql53-23" style="edgeStyle=orthogonalEdgeStyle;rounded=0;orthogonalLoop=1;jettySize=auto;html=1;exitX=0;exitY=0.5;exitDx=0;exitDy=0;entryX=0.5;entryY=0;entryDx=0;entryDy=0;" parent="WIyWlLk6GJQsqaUBKTNV-1" source="UUrrPUcGa-4PxcQuql53-18" target="UUrrPUcGa-4PxcQuql53-21" edge="1">
          <mxGeometry relative="1" as="geometry" />
        </mxCell>
        <mxCell id="UUrrPUcGa-4PxcQuql53-24" style="edgeStyle=orthogonalEdgeStyle;rounded=0;orthogonalLoop=1;jettySize=auto;html=1;exitX=1;exitY=0.5;exitDx=0;exitDy=0;entryX=0.5;entryY=0;entryDx=0;entryDy=0;" parent="WIyWlLk6GJQsqaUBKTNV-1" source="UUrrPUcGa-4PxcQuql53-18" target="UUrrPUcGa-4PxcQuql53-22" edge="1">
          <mxGeometry relative="1" as="geometry" />
        </mxCell>
        <mxCell id="UUrrPUcGa-4PxcQuql53-18" value="n cust to &lt;br&gt;remove&lt;br&gt;&lt;div&gt;&amp;gt;&lt;/div&gt;&lt;div&gt;n served &lt;br&gt;customers&lt;/div&gt;" style="rhombus;whiteSpace=wrap;html=1;fillColor=none;" parent="WIyWlLk6GJQsqaUBKTNV-1" vertex="1">
          <mxGeometry x="322.37" y="200" width="131.75" height="130" as="geometry" />
        </mxCell>
        <mxCell id="UUrrPUcGa-4PxcQuql53-25" style="edgeStyle=orthogonalEdgeStyle;rounded=0;orthogonalLoop=1;jettySize=auto;html=1;exitX=0.5;exitY=1;exitDx=0;exitDy=0;entryX=0.5;entryY=0;entryDx=0;entryDy=0;" parent="WIyWlLk6GJQsqaUBKTNV-1" source="UUrrPUcGa-4PxcQuql53-21" target="w9apprOF4AOWEV_3NA-S-17" edge="1">
          <mxGeometry relative="1" as="geometry" />
        </mxCell>
        <mxCell id="UUrrPUcGa-4PxcQuql53-21" value="customers_to_remove = calculated customers to remove" style="rounded=1;whiteSpace=wrap;html=1;fillColor=none;" parent="WIyWlLk6GJQsqaUBKTNV-1" vertex="1">
          <mxGeometry x="78.94" y="330" width="211.06" height="40" as="geometry" />
        </mxCell>
        <mxCell id="UUrrPUcGa-4PxcQuql53-26" style="edgeStyle=orthogonalEdgeStyle;rounded=0;orthogonalLoop=1;jettySize=auto;html=1;exitX=0.5;exitY=1;exitDx=0;exitDy=0;entryX=0.5;entryY=0;entryDx=0;entryDy=0;" parent="WIyWlLk6GJQsqaUBKTNV-1" source="UUrrPUcGa-4PxcQuql53-22" target="w9apprOF4AOWEV_3NA-S-17" edge="1">
          <mxGeometry relative="1" as="geometry" />
        </mxCell>
        <mxCell id="UUrrPUcGa-4PxcQuql53-22" value="customers_to_remove = number of served customers" style="rounded=1;whiteSpace=wrap;html=1;fillColor=none;" parent="WIyWlLk6GJQsqaUBKTNV-1" vertex="1">
          <mxGeometry x="474.1" y="330" width="211.06" height="40" as="geometry" />
        </mxCell>
        <mxCell id="UUrrPUcGa-4PxcQuql53-27" value="Yes" style="text;html=1;align=center;verticalAlign=middle;resizable=0;points=[];autosize=1;strokeColor=none;fillColor=none;" parent="WIyWlLk6GJQsqaUBKTNV-1" vertex="1">
          <mxGeometry x="460" y="238" width="40" height="30" as="geometry" />
        </mxCell>
        <mxCell id="UUrrPUcGa-4PxcQuql53-28" value="No" style="text;html=1;align=center;verticalAlign=middle;resizable=0;points=[];autosize=1;strokeColor=none;fillColor=none;" parent="WIyWlLk6GJQsqaUBKTNV-1" vertex="1">
          <mxGeometry x="272.35" y="238" width="40" height="30" as="geometry" />
        </mxCell>
        <mxCell id="UUrrPUcGa-4PxcQuql53-29" value="Yes" style="text;html=1;align=center;verticalAlign=middle;resizable=0;points=[];autosize=1;strokeColor=none;fillColor=none;" parent="WIyWlLk6GJQsqaUBKTNV-1" vertex="1">
          <mxGeometry x="345.73" y="780" width="40" height="30" as="geometry" />
        </mxCell>
        <mxCell id="ovq_Euehlx0OOnayFl8J-0" value="Do the removal procedure for selected customer" style="rounded=1;whiteSpace=wrap;html=1;fillColor=none;" vertex="1" parent="WIyWlLk6GJQsqaUBKTNV-1">
          <mxGeometry x="283.26" y="640" width="204.91" height="40" as="geometry" />
        </mxCell>
        <mxCell id="ovq_Euehlx0OOnayFl8J-6" style="edgeStyle=orthogonalEdgeStyle;rounded=0;orthogonalLoop=1;jettySize=auto;html=1;entryX=0.5;entryY=0;entryDx=0;entryDy=0;" edge="1" parent="WIyWlLk6GJQsqaUBKTNV-1" source="ovq_Euehlx0OOnayFl8J-0" target="UUrrPUcGa-4PxcQuql53-6">
          <mxGeometry relative="1" as="geometry" />
        </mxCell>
      </root>
    </mxGraphModel>
  </diagram>
</mxfile>
